<svg width="80" height="80" viewBox="0 0 80 80" fill="none" xmlns="http://www.w3.org/2000/svg">
<rect width="80" height="80" fill="white"/>
<path d="M20.701 59.2V59.904L17.293 64.296H20.829V65H16.325V64.296L19.741 59.904H16.589V59.2H20.701ZM23.2285 61.248C22.6365 61.248 22.0525 61.528 21.9325 62.464H24.4685C24.4205 61.76 23.9245 61.248 23.2285 61.248ZM25.1805 63.752C24.9805 64.496 24.3005 65.104 23.2525 65.104C21.8925 65.104 21.1405 64.128 21.1405 62.856C21.1405 61.496 22.0525 60.624 23.2285 60.624C24.5405 60.624 25.3325 61.728 25.2365 63.072H21.9165C22.0045 64.072 22.6525 64.464 23.2525 64.464C23.8925 64.464 24.2445 64.176 24.4285 63.752H25.1805ZM28.0689 60.68V61.456C27.9169 61.44 27.7809 61.424 27.6609 61.424C26.9889 61.424 26.6529 61.8 26.6529 62.744V65H25.9249V60.696H26.6369V61.448C26.8529 60.96 27.3249 60.672 27.8529 60.672C27.9249 60.672 27.9889 60.672 28.0689 60.68ZM29.0265 62.864C29.0265 64.008 29.6585 64.464 30.3145 64.464C30.9705 64.464 31.6025 63.968 31.6025 62.864C31.6025 61.72 30.9705 61.264 30.3145 61.264C29.6585 61.264 29.0265 61.688 29.0265 62.864ZM28.2505 62.864C28.2505 61.304 29.3145 60.624 30.3145 60.624C31.3145 60.624 32.3785 61.304 32.3785 62.864C32.3785 64.424 31.3145 65.104 30.3145 65.104C29.3145 65.104 28.2505 64.424 28.2505 62.864ZM39.0117 63.152H39.8037C39.5477 64.432 38.5477 65.104 37.2917 65.104C35.6277 65.104 34.6597 63.856 34.6597 62.088C34.6597 60.288 35.7157 59.096 37.3557 59.096C38.5557 59.096 39.5237 59.808 39.7717 61.048H38.9797C38.8037 60.328 38.2437 59.784 37.3157 59.784C36.2917 59.784 35.4917 60.584 35.4917 62.088C35.4917 63.552 36.2597 64.416 37.3397 64.416C38.2597 64.416 38.8277 63.896 39.0117 63.152ZM41.2004 59.2V61.344C41.4484 60.936 41.8644 60.624 42.5924 60.624C43.6324 60.624 44.0084 61.296 44.0084 62.28V65H43.2804V62.496C43.2804 61.832 43.1684 61.256 42.3364 61.256C41.6324 61.256 41.2004 61.744 41.2004 62.664V65H40.4724V59.2H41.2004ZM45.6654 59.2V65H44.9374V59.2H45.6654ZM47.1562 62.864C47.1562 64.008 47.7882 64.464 48.4442 64.464C49.1002 64.464 49.7322 63.968 49.7322 62.864C49.7322 61.72 49.1002 61.264 48.4442 61.264C47.7882 61.264 47.1562 61.688 47.1562 62.864ZM46.3802 62.864C46.3802 61.304 47.4442 60.624 48.4442 60.624C49.4442 60.624 50.5082 61.304 50.5082 62.864C50.5082 64.424 49.4442 65.104 48.4442 65.104C47.4442 65.104 46.3802 64.424 46.3802 62.864ZM53.363 60.68V61.456C53.211 61.44 53.075 61.424 52.955 61.424C52.283 61.424 51.947 61.8 51.947 62.744V65H51.219V60.696H51.931V61.448C52.147 60.96 52.619 60.672 53.147 60.672C53.219 60.672 53.283 60.672 53.363 60.68ZM53.9027 60.696H54.6307V65H53.9027V60.696ZM54.2707 60.112C54.0147 60.112 53.7987 59.904 53.7987 59.64C53.7987 59.376 54.0147 59.168 54.2707 59.168C54.5267 59.168 54.7427 59.376 54.7427 59.64C54.7427 59.904 54.5267 60.112 54.2707 60.112ZM56.3535 60.696V61.344C56.6015 60.936 57.0175 60.624 57.7455 60.624C58.7855 60.624 59.1615 61.296 59.1615 62.28V65H58.4335V62.496C58.4335 61.832 58.3215 61.256 57.4895 61.256C56.7855 61.256 56.3535 61.744 56.3535 62.664V65H55.6255V60.696H56.3535ZM61.8825 61.248C61.2905 61.248 60.7065 61.528 60.5865 62.464H63.1225C63.0745 61.76 62.5785 61.248 61.8825 61.248ZM63.8345 63.752C63.6345 64.496 62.9545 65.104 61.9065 65.104C60.5465 65.104 59.7945 64.128 59.7945 62.856C59.7945 61.496 60.7065 60.624 61.8825 60.624C63.1945 60.624 63.9865 61.728 63.8905 63.072H60.5705C60.6585 64.072 61.3065 64.464 61.9065 64.464C62.5465 64.464 62.8985 64.176 63.0825 63.752H63.8345ZM22.9803 75V69.2H25.0683C26.1483 69.2 27.1083 69.48 27.1083 70.632C27.1083 71.184 26.8683 71.68 26.4683 71.912C27.0203 72.144 27.3483 72.576 27.3483 73.288C27.3483 74.52 26.4283 75 25.2683 75H22.9803ZM23.7963 72.328V74.312H25.2763C26.1003 74.312 26.5083 73.952 26.5083 73.296C26.5083 72.616 26.1003 72.328 25.2283 72.328H23.7963ZM23.7963 69.888V71.68H25.1963C25.8603 71.68 26.2843 71.424 26.2843 70.744C26.2843 70.152 25.8443 69.888 25.1963 69.888H23.7963ZM28.8113 69.2V75H28.0833V69.2H28.8113ZM31.5982 71.248C31.0062 71.248 30.4222 71.528 30.3022 72.464H32.8382C32.7902 71.76 32.2942 71.248 31.5982 71.248ZM33.5502 73.752C33.3502 74.496 32.6702 75.104 31.6222 75.104C30.2622 75.104 29.5102 74.128 29.5102 72.856C29.5102 71.496 30.4222 70.624 31.5982 70.624C32.9102 70.624 33.7022 71.728 33.6062 73.072H30.2862C30.3742 74.072 31.0222 74.464 31.6222 74.464C32.2622 74.464 32.6142 74.176 32.7982 73.752H33.5502ZM37.0075 75C36.9835 74.84 36.9595 74.664 36.9515 74.408C36.6875 74.848 36.2395 75.104 35.4795 75.104C34.6715 75.104 33.9995 74.656 33.9995 73.864C33.9995 72.848 35.1435 72.552 36.9115 72.352V72.248C36.9115 71.464 36.4715 71.2 35.9355 71.2C35.3355 71.2 34.9835 71.528 34.9515 72.056H34.1995C34.2715 71.128 35.0875 70.608 35.9275 70.608C37.1115 70.608 37.6555 71.176 37.6395 72.384C37.6395 72.712 37.6395 73.048 37.6315 73.376C37.6235 74.096 37.6635 74.592 37.7435 75H37.0075ZM36.9675 73.2V72.928C35.6475 73.064 34.8075 73.256 34.8075 73.848C34.8075 74.256 35.1195 74.528 35.6395 74.528C36.3195 74.528 36.9675 74.216 36.9675 73.2ZM40.3483 70.624C41.3883 70.624 42.0523 71.408 42.1483 72.136H41.4123C41.3083 71.624 40.8603 71.264 40.3003 71.264C39.6523 71.264 39.0603 71.768 39.0603 72.848C39.0603 73.944 39.6603 74.464 40.3003 74.464C40.9083 74.464 41.3403 74.056 41.4443 73.6H42.1963C42.0523 74.408 41.2763 75.104 40.2763 75.104C39.0443 75.104 38.2683 74.168 38.2683 72.856C38.2683 71.576 39.0763 70.624 40.3483 70.624ZM43.5854 69.2V71.344C43.8334 70.936 44.2494 70.624 44.9774 70.624C46.0174 70.624 46.3934 71.296 46.3934 72.28V75H45.6654V72.496C45.6654 71.832 45.5534 71.256 44.7214 71.256C44.0174 71.256 43.5854 71.744 43.5854 72.664V75H42.8574V69.2H43.5854ZM47.3224 70.696H48.0504V75H47.3224V70.696ZM47.6904 70.112C47.4344 70.112 47.2184 69.904 47.2184 69.64C47.2184 69.376 47.4344 69.168 47.6904 69.168C47.9464 69.168 48.1624 69.376 48.1624 69.64C48.1624 69.904 47.9464 70.112 47.6904 70.112ZM49.7732 70.696V71.344C50.0212 70.936 50.4372 70.624 51.1652 70.624C52.2052 70.624 52.5812 71.296 52.5812 72.28V75H51.8532V72.496C51.8532 71.832 51.7412 71.256 50.9092 71.256C50.2052 71.256 49.7732 71.744 49.7732 72.664V75H49.0452V70.696H49.7732ZM56.4062 71.376V70.696H57.1342V74.576C57.1342 75.848 56.4622 76.504 55.2382 76.504C54.2622 76.504 53.6062 76.056 53.4702 75.184H54.2462C54.3422 75.568 54.5822 75.864 55.2462 75.864C55.8942 75.864 56.4062 75.576 56.4062 74.672V74.184C56.1422 74.64 55.7262 74.928 55.0382 74.928C54.0862 74.928 53.2142 74.16 53.2142 72.776C53.2142 71.4 54.0862 70.624 55.0382 70.624C55.7262 70.624 56.1422 70.92 56.4062 71.376ZM56.4382 72.776C56.4382 71.688 55.8702 71.248 55.2222 71.248C54.5102 71.248 54.0062 71.8 54.0062 72.776C54.0062 73.76 54.5102 74.312 55.2222 74.312C55.8702 74.312 56.4382 73.872 56.4382 72.776Z" fill="#141414"/>
<path d="M41.248 30.619C40.857 32.2 39.65 33.305 37.695 33.305C35.4 33.305 33.768 31.469 33.768 28.358C33.768 25.162 35.468 23.462 37.644 23.462C39.616 23.462 40.806 24.618 41.18 26.148H42.863C42.336 23.513 40.279 22 37.729 22C34.244 22 32 24.533 32 28.358C32 32.115 34.057 34.767 37.593 34.767C40.262 34.767 42.387 33.339 42.931 30.619H41.248Z" fill="#141414"/>
<path d="M46.239 22.221H44.692V34.546H46.239V22.221Z" fill="#141414"/>
<rect x="23" y="11" width="34" height="34" rx="1" stroke="#141414" stroke-width="2"/>
<line x1="19.2071" y1="6.79289" x2="61.2071" y2="48.7929" stroke="#0000C9" stroke-width="2"/>
</svg>
