<svg width="81" height="80" viewBox="0 0 81 80" fill="none" xmlns="http://www.w3.org/2000/svg">
<rect width="80" height="80" transform="translate(0.666504)" fill="white"/>
<path d="M20.0234 62.096C20.0234 60.128 18.8714 59.888 17.6714 59.888H16.9274V64.312H17.6714C18.8714 64.312 20.0234 64.072 20.0234 62.096ZM16.1114 59.2H17.6954C19.5354 59.2 20.8554 59.888 20.8554 62.096C20.8554 64.312 19.5354 65 17.6954 65H16.1114V59.2ZM23.4751 61.248C22.8831 61.248 22.2991 61.528 22.1791 62.464H24.7151C24.6671 61.76 24.1711 61.248 23.4751 61.248ZM25.4271 63.752C25.2271 64.496 24.5471 65.104 23.4991 65.104C22.1391 65.104 21.3871 64.128 21.3871 62.856C21.3871 61.496 22.2991 60.624 23.4751 60.624C24.7871 60.624 25.5791 61.728 25.4831 63.072H22.1631C22.2511 64.072 22.8991 64.464 23.4991 64.464C24.1391 64.464 24.4911 64.176 24.6751 63.752H25.4271ZM28.3156 60.68V61.456C28.1636 61.44 28.0276 61.424 27.9076 61.424C27.2356 61.424 26.8996 61.8 26.8996 62.744V65H26.1716V60.696H26.8836V61.448C27.0996 60.96 27.5716 60.672 28.0996 60.672C28.1716 60.672 28.2356 60.672 28.3156 60.68ZM29.5833 62.664V65H28.8553V60.696H29.5833V61.344C29.8313 60.936 30.2313 60.624 30.8793 60.624C31.5353 60.624 31.9273 60.912 32.1193 61.384C32.4633 60.856 32.9673 60.624 33.5673 60.624C34.5673 60.624 34.9593 61.296 34.9593 62.28V65H34.2313V62.496C34.2313 61.832 34.1033 61.256 33.3113 61.256C32.6873 61.256 32.2713 61.744 32.2713 62.664V65H31.5433V62.496C31.5433 61.832 31.4153 61.256 30.6233 61.256C29.9993 61.256 29.5833 61.744 29.5833 62.664ZM38.6426 65C38.6186 64.84 38.5946 64.664 38.5866 64.408C38.3226 64.848 37.8746 65.104 37.1146 65.104C36.3066 65.104 35.6346 64.656 35.6346 63.864C35.6346 62.848 36.7786 62.552 38.5466 62.352V62.248C38.5466 61.464 38.1066 61.2 37.5706 61.2C36.9706 61.2 36.6186 61.528 36.5866 62.056H35.8346C35.9066 61.128 36.7226 60.608 37.5626 60.608C38.7466 60.608 39.2906 61.176 39.2746 62.384C39.2746 62.712 39.2746 63.048 39.2666 63.376C39.2586 64.096 39.2986 64.592 39.3786 65H38.6426ZM38.6026 63.2V62.928C37.2826 63.064 36.4426 63.256 36.4426 63.848C36.4426 64.256 36.7546 64.528 37.2746 64.528C37.9546 64.528 38.6026 64.216 38.6026 63.2ZM40.4074 60.696V59.616H41.1354V60.696H41.9514V61.28H41.1354V63.832C41.1354 64.28 41.1674 64.392 41.5834 64.392H41.9514V65H41.4234C40.5994 65 40.4074 64.816 40.4074 63.92V61.28H39.7274V60.696H40.4074ZM43.0979 62.864C43.0979 64.008 43.7299 64.464 44.3859 64.464C45.0419 64.464 45.6739 63.968 45.6739 62.864C45.6739 61.72 45.0419 61.264 44.3859 61.264C43.7299 61.264 43.0979 61.688 43.0979 62.864ZM42.3219 62.864C42.3219 61.304 43.3859 60.624 44.3859 60.624C45.3859 60.624 46.4499 61.304 46.4499 62.864C46.4499 64.424 45.3859 65.104 44.3859 65.104C43.3859 65.104 42.3219 64.424 42.3219 62.864ZM47.8886 59.2V65H47.1606V59.2H47.8886ZM49.3794 62.864C49.3794 64.008 50.0114 64.464 50.6674 64.464C51.3234 64.464 51.9554 63.968 51.9554 62.864C51.9554 61.72 51.3234 61.264 50.6674 61.264C50.0114 61.264 49.3794 61.688 49.3794 62.864ZM48.6034 62.864C48.6034 61.304 49.6674 60.624 50.6674 60.624C51.6674 60.624 52.7314 61.304 52.7314 62.864C52.7314 64.424 51.6674 65.104 50.6674 65.104C49.6674 65.104 48.6034 64.424 48.6034 62.864ZM56.4007 61.376V60.696H57.1287V64.576C57.1287 65.848 56.4567 66.504 55.2327 66.504C54.2567 66.504 53.6007 66.056 53.4647 65.184H54.2407C54.3367 65.568 54.5767 65.864 55.2407 65.864C55.8887 65.864 56.4007 65.576 56.4007 64.672V64.184C56.1367 64.64 55.7207 64.928 55.0327 64.928C54.0807 64.928 53.2087 64.16 53.2087 62.776C53.2087 61.4 54.0807 60.624 55.0327 60.624C55.7207 60.624 56.1367 60.92 56.4007 61.376ZM56.4327 62.776C56.4327 61.688 55.8647 61.248 55.2167 61.248C54.5047 61.248 54.0007 61.8 54.0007 62.776C54.0007 63.76 54.5047 64.312 55.2167 64.312C55.8647 64.312 56.4327 63.872 56.4327 62.776ZM58.1181 60.696H58.8461V65H58.1181V60.696ZM58.4861 60.112C58.2301 60.112 58.0141 59.904 58.0141 59.64C58.0141 59.376 58.2301 59.168 58.4861 59.168C58.7421 59.168 58.9581 59.376 58.9581 59.64C58.9581 59.904 58.7421 60.112 58.4861 60.112ZM63.0649 61.952H62.3049C62.1929 61.44 61.7929 61.24 61.2889 61.24C60.8649 61.24 60.3849 61.392 60.3849 61.784C60.3849 62.128 60.6249 62.288 61.0409 62.368L61.6489 62.488C62.4329 62.64 63.1209 62.936 63.1209 63.768C63.1209 64.616 62.3529 65.104 61.3689 65.104C60.2409 65.104 59.6009 64.36 59.5209 63.608H60.2889C60.4009 64.16 60.7449 64.488 61.3849 64.488C61.9369 64.488 62.3849 64.248 62.3849 63.848C62.3849 63.416 61.9769 63.232 61.5129 63.136L60.8729 63.008C60.2889 62.888 59.6489 62.616 59.6489 61.816C59.6489 61.056 60.4169 60.616 61.3689 60.616C62.2969 60.616 62.9289 61.136 63.0649 61.952ZM64.0921 60.696V59.616H64.8201V60.696H65.6361V61.28H64.8201V63.832C64.8201 64.28 64.8521 64.392 65.2681 64.392H65.6361V65H65.1081C64.2841 65 64.0921 64.816 64.0921 63.92V61.28H63.4121V60.696H64.0921ZM30.4331 75V69.904H28.5451V69.2H33.1371V69.904H31.2491V75H30.4331ZM34.7062 71.248C34.1142 71.248 33.5302 71.528 33.4102 72.464H35.9462C35.8982 71.76 35.4022 71.248 34.7062 71.248ZM36.6582 73.752C36.4582 74.496 35.7782 75.104 34.7302 75.104C33.3702 75.104 32.6182 74.128 32.6182 72.856C32.6182 71.496 33.5302 70.624 34.7062 70.624C36.0182 70.624 36.8102 71.728 36.7142 73.072H33.3942C33.4822 74.072 34.1302 74.464 34.7302 74.464C35.3702 74.464 35.7222 74.176 35.9062 73.752H36.6582ZM40.6267 71.952H39.8667C39.7547 71.44 39.3547 71.24 38.8507 71.24C38.4267 71.24 37.9467 71.392 37.9467 71.784C37.9467 72.128 38.1867 72.288 38.6027 72.368L39.2107 72.488C39.9947 72.64 40.6827 72.936 40.6827 73.768C40.6827 74.616 39.9147 75.104 38.9307 75.104C37.8027 75.104 37.1627 74.36 37.0827 73.608H37.8507C37.9627 74.16 38.3067 74.488 38.9467 74.488C39.4987 74.488 39.9467 74.248 39.9467 73.848C39.9467 73.416 39.5387 73.232 39.0747 73.136L38.4347 73.008C37.8507 72.888 37.2107 72.616 37.2107 71.816C37.2107 71.056 37.9787 70.616 38.9307 70.616C39.8587 70.616 40.4907 71.136 40.6267 71.952ZM41.6538 70.696V69.616H42.3818V70.696H43.1978V71.28H42.3818V73.832C42.3818 74.28 42.4138 74.392 42.8298 74.392H43.1978V75H42.6698C41.8458 75 41.6538 74.816 41.6538 73.92V71.28H40.9738V70.696H41.6538ZM45.6403 71.248C45.0483 71.248 44.4643 71.528 44.3443 72.464H46.8803C46.8323 71.76 46.3363 71.248 45.6403 71.248ZM47.5923 73.752C47.3923 74.496 46.7123 75.104 45.6643 75.104C44.3043 75.104 43.5523 74.128 43.5523 72.856C43.5523 71.496 44.4643 70.624 45.6403 70.624C46.9523 70.624 47.7443 71.728 47.6483 73.072H44.3283C44.4163 74.072 45.0643 74.464 45.6643 74.464C46.3043 74.464 46.6563 74.176 46.8403 73.752H47.5923ZM51.3278 71.376V69.2H52.0558V75H51.3278V74.352C51.0638 74.808 50.6078 75.104 49.9198 75.104C48.9358 75.104 48.0798 74.288 48.0798 72.864C48.0798 71.448 48.9358 70.624 49.9198 70.624C50.6078 70.624 51.0638 70.92 51.3278 71.376ZM51.3598 72.864C51.3598 71.728 50.7518 71.248 50.1038 71.248C49.3598 71.248 48.8718 71.84 48.8718 72.864C48.8718 73.888 49.3598 74.48 50.1038 74.48C50.7518 74.48 51.3598 74 51.3598 72.864Z" fill="#141414"/>
<circle cx="44.7038" cy="24.0326" r="13.0329" stroke="#141414" stroke-width="2"/>
<path d="M35.2415 32.6509L22.0111 45.8812" stroke="#141414" stroke-width="2"/>
<path d="M51.1675 20L43.6675 27.5L39.6675 23.5" stroke="#0000C9" stroke-width="2"/>
</svg>
