<svg viewBox="0 0 100 100" xmlns="http://www.w3.org/2000/svg" id="Layer_1"><defs><style>.cls-1{fill:none;stroke:#0000C9;stroke-linecap:round;stroke-linejoin:round;stroke-width:3px;}</style></defs><path d="M75.54,31.58c0,10.94,8.87,19.81,19.81,19.81h0c-10.94,0-19.81,8.87-19.81,19.81h0c0-10.94-8.87-19.81-19.81-19.81h0c10.94,0,19.81-8.87,19.81-19.81h0Z" class="cls-1"></path><path d="M31.06,6.9c0,14.59,11.82,26.41,26.41,26.41h0c-14.59,0-26.41,11.82-26.41,26.41h0c0-14.59-11.82-26.41-26.41-26.41h0c14.59,0,26.41-11.82,26.41-26.41h0Z" class="cls-1"></path><path d="M48.4,66.69c0,7.29,5.91,13.2,13.2,13.2h0c-7.29,0-13.2,5.91-13.2,13.2h0c0-7.29-5.91-13.2-13.2-13.2h0c7.29,0,13.2-5.91,13.2-13.2h0Z" class="cls-1"></path></svg>