<svg width="81" height="80" viewBox="0 0 81 80" fill="none" xmlns="http://www.w3.org/2000/svg">
<rect width="80" height="80" transform="translate(0.333252)" fill="white"/>
<path d="M16.584 63.152H17.376C17.12 64.432 16.12 65.104 14.864 65.104C13.2 65.104 12.232 63.856 12.232 62.088C12.232 60.288 13.288 59.096 14.928 59.096C16.128 59.096 17.096 59.808 17.344 61.048H16.552C16.376 60.328 15.816 59.784 14.888 59.784C13.864 59.784 13.064 60.584 13.064 62.088C13.064 63.552 13.832 64.416 14.912 64.416C15.832 64.416 16.4 63.896 16.584 63.152ZM18.7727 59.2V65H18.0447V59.2H18.7727ZM19.7675 60.696H20.4955V65H19.7675V60.696ZM20.1355 60.112C19.8795 60.112 19.6635 59.904 19.6635 59.64C19.6635 59.376 19.8795 59.168 20.1355 59.168C20.3915 59.168 20.6075 59.376 20.6075 59.64C20.6075 59.904 20.3915 60.112 20.1355 60.112ZM22.2183 60.696V61.344C22.4663 60.936 22.8823 60.624 23.6103 60.624C24.6503 60.624 25.0263 61.296 25.0263 62.28V65H24.2983V62.496C24.2983 61.832 24.1863 61.256 23.3543 61.256C22.6503 61.256 22.2183 61.744 22.2183 62.664V65H21.4903V60.696H22.2183ZM25.9553 60.696H26.6833V65H25.9553V60.696ZM26.3233 60.112C26.0673 60.112 25.8513 59.904 25.8513 59.64C25.8513 59.376 26.0673 59.168 26.3233 59.168C26.5793 59.168 26.7953 59.376 26.7953 59.64C26.7953 59.904 26.5793 60.112 26.3233 60.112ZM29.4622 60.624C30.5022 60.624 31.1662 61.408 31.2622 62.136H30.5262C30.4222 61.624 29.9742 61.264 29.4142 61.264C28.7662 61.264 28.1742 61.768 28.1742 62.848C28.1742 63.944 28.7742 64.464 29.4142 64.464C30.0222 64.464 30.4542 64.056 30.5582 63.6H31.3102C31.1662 64.408 30.3902 65.104 29.3902 65.104C28.1582 65.104 27.3822 64.168 27.3822 62.856C27.3822 61.576 28.1902 60.624 29.4622 60.624ZM34.7233 65C34.6993 64.84 34.6753 64.664 34.6673 64.408C34.4033 64.848 33.9553 65.104 33.1953 65.104C32.3873 65.104 31.7153 64.656 31.7153 63.864C31.7153 62.848 32.8593 62.552 34.6273 62.352V62.248C34.6273 61.464 34.1873 61.2 33.6513 61.2C33.0513 61.2 32.6993 61.528 32.6673 62.056H31.9153C31.9873 61.128 32.8033 60.608 33.6433 60.608C34.8273 60.608 35.3713 61.176 35.3553 62.384C35.3553 62.712 35.3553 63.048 35.3473 63.376C35.3393 64.096 35.3793 64.592 35.4593 65H34.7233ZM34.6833 63.2V62.928C33.3633 63.064 32.5233 63.256 32.5233 63.848C32.5233 64.256 32.8353 64.528 33.3553 64.528C34.0353 64.528 34.6833 64.216 34.6833 63.2ZM37.008 59.2V65H36.28V59.2H37.008ZM38.7308 59.2V65H38.0028V59.2H38.7308ZM39.8457 66.4H39.4697V65.792H39.7657C40.2457 65.792 40.4777 65.76 40.6697 65.088L40.7017 65L39.1497 60.696H39.9577L41.0537 64.016L42.1177 60.696H42.8777L41.3417 65.184C41.0297 66.12 40.8057 66.4 39.8457 66.4ZM45.1427 59.2H46.9587C48.3747 59.2 49.3667 59.52 49.3667 60.952C49.3667 62.392 48.3747 62.704 46.9587 62.704H45.9587V65H45.1427V59.2ZM47.0227 59.888H45.9587V61.992H47.0227C47.8707 61.992 48.5347 61.904 48.5347 60.952C48.5347 60.008 47.8707 59.888 47.0227 59.888ZM52.0225 60.68V61.456C51.8705 61.44 51.7345 61.424 51.6145 61.424C50.9425 61.424 50.6065 61.8 50.6065 62.744V65H49.8785V60.696H50.5905V61.448C50.8065 60.96 51.2785 60.672 51.8065 60.672C51.8785 60.672 51.9425 60.672 52.0225 60.68ZM52.9801 62.864C52.9801 64.008 53.6121 64.464 54.2681 64.464C54.9241 64.464 55.5561 63.968 55.5561 62.864C55.5561 61.72 54.9241 61.264 54.2681 61.264C53.6121 61.264 52.9801 61.688 52.9801 62.864ZM52.2041 62.864C52.2041 61.304 53.2681 60.624 54.2681 60.624C55.2681 60.624 56.3321 61.304 56.3321 62.864C56.3321 64.424 55.2681 65.104 54.2681 65.104C53.2681 65.104 52.2041 64.424 52.2041 62.864ZM57.1967 60.696L58.3647 63.992L59.5327 60.696H60.2847L58.6607 65H58.0127L56.3887 60.696H57.1967ZM62.417 61.248C61.825 61.248 61.241 61.528 61.121 62.464H63.657C63.609 61.76 63.113 61.248 62.417 61.248ZM64.369 63.752C64.169 64.496 63.489 65.104 62.441 65.104C61.081 65.104 60.329 64.128 60.329 62.856C60.329 61.496 61.241 60.624 62.417 60.624C63.729 60.624 64.521 61.728 64.425 63.072H61.105C61.193 64.072 61.841 64.464 62.441 64.464C63.081 64.464 63.433 64.176 63.617 63.752H64.369ZM65.8415 60.696V61.344C66.0895 60.936 66.5055 60.624 67.2335 60.624C68.2735 60.624 68.6495 61.296 68.6495 62.28V65H67.9215V62.496C67.9215 61.832 67.8095 61.256 66.9775 61.256C66.2735 61.256 65.8415 61.744 65.8415 62.664V65H65.1135V60.696H65.8415ZM18.2143 69.2H19.0303V75H18.2143V72.368H15.1663V75H14.3503V69.2H15.1663V71.664H18.2143V69.2ZM20.253 76.4H19.877V75.792H20.173C20.653 75.792 20.885 75.76 21.077 75.088L21.109 75L19.557 70.696H20.365L21.461 74.016L22.525 70.696H23.285L21.749 75.184C21.437 76.12 21.213 76.4 20.253 76.4ZM23.6996 70.696H24.4276V71.376C24.6916 70.92 25.1476 70.624 25.8356 70.624C26.8196 70.624 27.6756 71.448 27.6756 72.864C27.6756 74.288 26.8196 75.104 25.8356 75.104C25.1476 75.104 24.6916 74.808 24.4276 74.352V76.4H23.6996V70.696ZM24.3956 72.864C24.3956 74 25.0036 74.48 25.6516 74.48C26.3956 74.48 26.8836 73.888 26.8836 72.864C26.8836 71.84 26.3956 71.248 25.6516 71.248C25.0036 71.248 24.3956 71.728 24.3956 72.864ZM28.9262 72.864C28.9262 74.008 29.5582 74.464 30.2142 74.464C30.8702 74.464 31.5022 73.968 31.5022 72.864C31.5022 71.72 30.8702 71.264 30.2142 71.264C29.5582 71.264 28.9262 71.688 28.9262 72.864ZM28.1502 72.864C28.1502 71.304 29.2142 70.624 30.2142 70.624C31.2142 70.624 32.2782 71.304 32.2782 72.864C32.2782 74.424 31.2142 75.104 30.2142 75.104C29.2142 75.104 28.1502 74.424 28.1502 72.864ZM35.7409 75C35.7169 74.84 35.6929 74.664 35.6849 74.408C35.4209 74.848 34.9729 75.104 34.2129 75.104C33.4049 75.104 32.7329 74.656 32.7329 73.864C32.7329 72.848 33.8769 72.552 35.6449 72.352V72.248C35.6449 71.464 35.2049 71.2 34.6689 71.2C34.0689 71.2 33.7169 71.528 33.6849 72.056H32.9329C33.0049 71.128 33.8209 70.608 34.6609 70.608C35.8449 70.608 36.3889 71.176 36.3729 72.384C36.3729 72.712 36.3729 73.048 36.3649 73.376C36.3569 74.096 36.3969 74.592 36.4769 75H35.7409ZM35.7009 73.2V72.928C34.3809 73.064 33.5409 73.256 33.5409 73.848C33.5409 74.256 33.8529 74.528 34.3729 74.528C35.0529 74.528 35.7009 74.216 35.7009 73.2ZM38.0257 69.2V75H37.2977V69.2H38.0257ZM39.7485 69.2V75H39.0205V69.2H39.7485ZM42.5353 71.248C41.9433 71.248 41.3593 71.528 41.2393 72.464H43.7753C43.7273 71.76 43.2313 71.248 42.5353 71.248ZM44.4873 73.752C44.2873 74.496 43.6073 75.104 42.5593 75.104C41.1993 75.104 40.4473 74.128 40.4473 72.856C40.4473 71.496 41.3593 70.624 42.5353 70.624C43.8473 70.624 44.6393 71.728 44.5433 73.072H41.2233C41.3113 74.072 41.9593 74.464 42.5593 74.464C43.1993 74.464 43.5513 74.176 43.7353 73.752H44.4873ZM47.3758 70.68V71.456C47.2238 71.44 47.0878 71.424 46.9678 71.424C46.2958 71.424 45.9598 71.8 45.9598 72.744V75H45.2318V70.696H45.9438V71.448C46.1598 70.96 46.6318 70.672 47.1598 70.672C47.2318 70.672 47.2958 70.672 47.3758 70.68ZM50.7334 71.376V70.696H51.4614V74.576C51.4614 75.848 50.7894 76.504 49.5654 76.504C48.5894 76.504 47.9334 76.056 47.7974 75.184H48.5734C48.6694 75.568 48.9094 75.864 49.5734 75.864C50.2214 75.864 50.7334 75.576 50.7334 74.672V74.184C50.4694 74.64 50.0534 74.928 49.3654 74.928C48.4134 74.928 47.5414 74.16 47.5414 72.776C47.5414 71.4 48.4134 70.624 49.3654 70.624C50.0534 70.624 50.4694 70.92 50.7334 71.376ZM50.7654 72.776C50.7654 71.688 50.1974 71.248 49.5494 71.248C48.8374 71.248 48.3334 71.8 48.3334 72.776C48.3334 73.76 48.8374 74.312 49.5494 74.312C50.1974 74.312 50.7654 73.872 50.7654 72.776ZM54.2428 71.248C53.6508 71.248 53.0668 71.528 52.9468 72.464H55.4828C55.4348 71.76 54.9388 71.248 54.2428 71.248ZM56.1948 73.752C55.9948 74.496 55.3148 75.104 54.2668 75.104C52.9068 75.104 52.1548 74.128 52.1548 72.856C52.1548 71.496 53.0668 70.624 54.2428 70.624C55.5548 70.624 56.3468 71.728 56.2508 73.072H52.9308C53.0188 74.072 53.6668 74.464 54.2668 74.464C54.9068 74.464 55.2588 74.176 55.4428 73.752H56.1948ZM57.6673 70.696V71.344C57.9153 70.936 58.3313 70.624 59.0593 70.624C60.0993 70.624 60.4753 71.296 60.4753 72.28V75H59.7473V72.496C59.7473 71.832 59.6353 71.256 58.8033 71.256C58.0993 71.256 57.6673 71.744 57.6673 72.664V75H56.9393V70.696H57.6673ZM61.4043 70.696H62.1323V75H61.4043V70.696ZM61.7723 70.112C61.5163 70.112 61.3003 69.904 61.3003 69.64C61.3003 69.376 61.5163 69.168 61.7723 69.168C62.0283 69.168 62.2443 69.376 62.2443 69.64C62.2443 69.904 62.0283 70.112 61.7723 70.112ZM64.9111 70.624C65.9511 70.624 66.6151 71.408 66.7111 72.136H65.9751C65.8711 71.624 65.4231 71.264 64.8631 71.264C64.2151 71.264 63.6231 71.768 63.6231 72.848C63.6231 73.944 64.2231 74.464 64.8631 74.464C65.4711 74.464 65.9031 74.056 66.0071 73.6H66.7591C66.6151 74.408 65.8391 75.104 64.8391 75.104C63.6071 75.104 62.8311 74.168 62.8311 72.856C62.8311 71.576 63.6391 70.624 64.9111 70.624Z" fill="#141414"/>
<path d="M38.3333 12.8438C38.618 13.2902 38.9661 13.8395 39.3596 14.4717C40.4792 16.2701 41.9703 18.7346 43.4602 21.4023C44.952 24.0734 46.4329 26.9318 47.5383 29.5215C48.6618 32.1536 49.3332 34.3659 49.3333 35.7998C49.3333 41.8749 44.4084 46.7998 38.3333 46.7998C32.2581 46.7998 27.3333 41.8749 27.3333 35.7998C27.3333 34.3659 28.0047 32.1536 29.1282 29.5215C30.2336 26.9318 31.7146 24.0734 33.2063 21.4023C34.6962 18.7346 36.1874 16.2701 37.3069 14.4717C37.7004 13.8395 38.0485 13.2902 38.3333 12.8438Z" stroke="#141414" stroke-width="2"/>
<path d="M33.3333 22.5L30.8333 20.5C30.1666 21.6667 28.7333 24.1 28.3333 24.5L27.3333 25.5L26.8333 28.5L27.3333 29.5L29.3333 30.5H30.8333L32.8333 29L34.3333 27L35.3333 25L34.3333 24L33.3333 22.5Z" fill="white"/>
<path d="M26.0401 28.2926C28.3424 30.5949 31.392 31.7846 33.9301 32.3916C35.1905 32.6931 36.303 32.8457 37.0976 32.9227C37.1567 32.9284 37.2141 32.9322 37.2696 32.9372C37.2646 32.8815 37.2615 32.8238 37.2557 32.7645C37.1788 31.9699 37.0261 30.8574 36.7247 29.597C36.1177 27.0589 34.928 24.0093 32.6257 21.707C30.3234 19.4049 27.2744 18.2157 24.7364 17.6087C23.4759 17.3072 22.3635 17.1546 21.5689 17.0777C21.5093 17.0719 21.4514 17.0681 21.3956 17.0632C21.4005 17.1188 21.405 17.1764 21.4107 17.2358C21.4877 18.0305 21.6403 19.1428 21.9418 20.4033C22.5488 22.9413 23.738 25.9903 26.0401 28.2926Z" stroke="#0000C9" stroke-width="2"/>
<path d="M29.7903 25.4336C32.6187 27.9674 38.6998 33.9719 40.3969 37.7196" stroke="#0000C9" stroke-width="2"/>
</svg>
