<svg width="80" height="80" viewBox="0 0 80 80" fill="none" xmlns="http://www.w3.org/2000/svg">
<rect width="80" height="80" fill="white"/>
<path d="M11.1514 65H9.95937L7.30337 60.048V65H6.48737V59.2H7.68737L10.3354 64.136V59.2H11.1514V65ZM12.7504 62.864C12.7504 64.008 13.3824 64.464 14.0384 64.464C14.6944 64.464 15.3264 63.968 15.3264 62.864C15.3264 61.72 14.6944 61.264 14.0384 61.264C13.3824 61.264 12.7504 61.688 12.7504 62.864ZM11.9744 62.864C11.9744 61.304 13.0384 60.624 14.0384 60.624C15.0384 60.624 16.1024 61.304 16.1024 62.864C16.1024 64.424 15.0384 65.104 14.0384 65.104C13.0384 65.104 11.9744 64.424 11.9744 62.864ZM18.6636 59.2H20.4796C21.8956 59.2 22.8876 59.52 22.8876 60.952C22.8876 62.392 21.8956 62.704 20.4796 62.704H19.4796V65H18.6636V59.2ZM20.5436 59.888H19.4796V61.992H20.5436C21.3916 61.992 22.0556 61.904 22.0556 60.952C22.0556 60.008 21.3916 59.888 20.5436 59.888ZM25.8702 65C25.8462 64.84 25.8222 64.664 25.8142 64.408C25.5502 64.848 25.1022 65.104 24.3422 65.104C23.5342 65.104 22.8622 64.656 22.8622 63.864C22.8622 62.848 24.0062 62.552 25.7742 62.352V62.248C25.7742 61.464 25.3342 61.2 24.7982 61.2C24.1982 61.2 23.8462 61.528 23.8142 62.056H23.0622C23.1342 61.128 23.9502 60.608 24.7902 60.608C25.9742 60.608 26.5182 61.176 26.5022 62.384C26.5022 62.712 26.5022 63.048 26.4942 63.376C26.4862 64.096 26.5262 64.592 26.6062 65H25.8702ZM25.8302 63.2V62.928C24.5102 63.064 23.6702 63.256 23.6702 63.848C23.6702 64.256 23.9822 64.528 24.5022 64.528C25.1822 64.528 25.8302 64.216 25.8302 63.2ZM29.5709 60.68V61.456C29.4189 61.44 29.2829 61.424 29.1629 61.424C28.4909 61.424 28.1549 61.8 28.1549 62.744V65H27.4269V60.696H28.1389V61.448C28.3549 60.96 28.8269 60.672 29.3549 60.672C29.4269 60.672 29.4909 60.672 29.5709 60.68ZM32.7064 65C32.6824 64.84 32.6584 64.664 32.6504 64.408C32.3864 64.848 31.9384 65.104 31.1784 65.104C30.3704 65.104 29.6984 64.656 29.6984 63.864C29.6984 62.848 30.8424 62.552 32.6104 62.352V62.248C32.6104 61.464 32.1704 61.2 31.6344 61.2C31.0344 61.2 30.6824 61.528 30.6504 62.056H29.8984C29.9704 61.128 30.7864 60.608 31.6264 60.608C32.8104 60.608 33.3544 61.176 33.3384 62.384C33.3384 62.712 33.3384 63.048 33.3304 63.376C33.3224 64.096 33.3624 64.592 33.4424 65H32.7064ZM32.6664 63.2V62.928C31.3464 63.064 30.5064 63.256 30.5064 63.848C30.5064 64.256 30.8184 64.528 31.3384 64.528C32.0184 64.528 32.6664 64.216 32.6664 63.2ZM34.2632 59.2H34.9912V61.376C35.2552 60.92 35.7112 60.624 36.3992 60.624C37.3832 60.624 38.2392 61.448 38.2392 62.864C38.2392 64.288 37.3832 65.104 36.3992 65.104C35.7112 65.104 35.2552 64.808 34.9912 64.352V65H34.2632V59.2ZM34.9592 62.864C34.9592 64 35.5672 64.48 36.2152 64.48C36.9592 64.48 37.4472 63.888 37.4472 62.864C37.4472 61.84 36.9592 61.248 36.2152 61.248C35.5672 61.248 34.9592 61.728 34.9592 62.864ZM40.7624 61.248C40.1704 61.248 39.5864 61.528 39.4664 62.464H42.0024C41.9544 61.76 41.4584 61.248 40.7624 61.248ZM42.7144 63.752C42.5144 64.496 41.8344 65.104 40.7864 65.104C39.4264 65.104 38.6744 64.128 38.6744 62.856C38.6744 61.496 39.5864 60.624 40.7624 60.624C42.0744 60.624 42.8664 61.728 42.7704 63.072H39.4504C39.5384 64.072 40.1864 64.464 40.7864 64.464C41.4264 64.464 41.7784 64.176 41.9624 63.752H42.7144ZM44.1868 60.696V61.344C44.4348 60.936 44.8508 60.624 45.5788 60.624C46.6188 60.624 46.9948 61.296 46.9948 62.28V65H46.2668V62.496C46.2668 61.832 46.1548 61.256 45.3228 61.256C44.6188 61.256 44.1868 61.744 44.1868 62.664V65H43.4588V60.696H44.1868ZM51.1478 61.952H50.3878C50.2758 61.44 49.8758 61.24 49.3718 61.24C48.9478 61.24 48.4678 61.392 48.4678 61.784C48.4678 62.128 48.7078 62.288 49.1238 62.368L49.7318 62.488C50.5158 62.64 51.2038 62.936 51.2038 63.768C51.2038 64.616 50.4358 65.104 49.4518 65.104C48.3238 65.104 47.6838 64.36 47.6038 63.608H48.3718C48.4838 64.16 48.8278 64.488 49.4678 64.488C50.0198 64.488 50.4678 64.248 50.4678 63.848C50.4678 63.416 50.0598 63.232 49.5958 63.136L48.9558 63.008C48.3718 62.888 47.7318 62.616 47.7318 61.816C47.7318 61.056 48.4998 60.616 49.4518 60.616C50.3798 60.616 51.0118 61.136 51.1478 61.952ZM51.9928 66H51.6888L52.0648 65C51.8968 64.92 51.7848 64.752 51.7848 64.544C51.7848 64.248 52.0168 64.032 52.2968 64.032C52.5768 64.032 52.8088 64.248 52.8088 64.544C52.8088 64.696 52.7608 64.808 52.6248 65.024L51.9928 66ZM59.4522 62.096C59.4522 60.128 58.3002 59.888 57.1002 59.888H56.3562V64.312H57.1002C58.3002 64.312 59.4522 64.072 59.4522 62.096ZM55.5402 59.2H57.1242C58.9642 59.2 60.2842 59.888 60.2842 62.096C60.2842 64.312 58.9642 65 57.1242 65H55.5402V59.2ZM61.1538 66.4H60.7778V65.792H61.0738C61.5538 65.792 61.7858 65.76 61.9778 65.088L62.0098 65L60.4578 60.696H61.2658L62.3618 64.016L63.4258 60.696H64.1858L62.6498 65.184C62.3378 66.12 62.1138 66.4 61.1538 66.4ZM66.3142 61.248C65.7222 61.248 65.1382 61.528 65.0182 62.464H67.5542C67.5062 61.76 67.0102 61.248 66.3142 61.248ZM68.2662 63.752C68.0662 64.496 67.3862 65.104 66.3382 65.104C64.9782 65.104 64.2262 64.128 64.2262 62.856C64.2262 61.496 65.1382 60.624 66.3142 60.624C67.6262 60.624 68.4182 61.728 68.3222 63.072H65.0022C65.0902 64.072 65.7382 64.464 66.3382 64.464C66.9782 64.464 67.3302 64.176 67.5142 63.752H68.2662ZM72.2347 61.952H71.4747C71.3627 61.44 70.9627 61.24 70.4587 61.24C70.0347 61.24 69.5547 61.392 69.5547 61.784C69.5547 62.128 69.7947 62.288 70.2107 62.368L70.8187 62.488C71.6027 62.64 72.2907 62.936 72.2907 63.768C72.2907 64.616 71.5227 65.104 70.5387 65.104C69.4107 65.104 68.7707 64.36 68.6907 63.608H69.4587C69.5707 64.16 69.9147 64.488 70.5547 64.488C71.1067 64.488 71.5547 64.248 71.5547 63.848C71.5547 63.416 71.1467 63.232 70.6827 63.136L70.0427 63.008C69.4587 62.888 68.8187 62.616 68.8187 61.816C68.8187 61.056 69.5867 60.616 70.5387 60.616C71.4667 60.616 72.0987 61.136 72.2347 61.952ZM73.0797 66H72.7757L73.1517 65C72.9837 64.92 72.8717 64.752 72.8717 64.544C72.8717 64.248 73.1037 64.032 73.3837 64.032C73.6637 64.032 73.8957 64.248 73.8957 64.544C73.8957 64.696 73.8477 64.808 73.7117 65.024L73.0797 66ZM2.10831 69.2H3.92431C5.34031 69.2 6.33231 69.52 6.33231 70.952C6.33231 72.392 5.34031 72.704 3.92431 72.704H2.92431V75H2.10831V69.2ZM3.98831 69.888H2.92431V71.992H3.98831C4.83631 71.992 5.50031 71.904 5.50031 70.952C5.50031 70.008 4.83631 69.888 3.98831 69.888ZM7.65025 69.2V71.344C7.89825 70.936 8.31425 70.624 9.04225 70.624C10.0822 70.624 10.4582 71.296 10.4582 72.28V75H9.73025V72.496C9.73025 71.832 9.61825 71.256 8.78625 71.256C8.08225 71.256 7.65025 71.744 7.65025 72.664V75H6.92225V69.2H7.65025ZM11.5952 70.696V69.616H12.3232V70.696H13.1392V71.28H12.3232V73.832C12.3232 74.28 12.3552 74.392 12.7712 74.392H13.1392V75H12.6112C11.7872 75 11.5952 74.816 11.5952 73.92V71.28H10.9152V70.696H11.5952ZM14.6349 69.2V71.344C14.8829 70.936 15.2989 70.624 16.0269 70.624C17.0669 70.624 17.4429 71.296 17.4429 72.28V75H16.7149V72.496C16.7149 71.832 16.6029 71.256 15.7709 71.256C15.0669 71.256 14.6349 71.744 14.6349 72.664V75H13.9069V69.2H14.6349ZM21.1239 75C21.0999 74.84 21.0759 74.664 21.0679 74.408C20.8039 74.848 20.3559 75.104 19.5959 75.104C18.7879 75.104 18.1159 74.656 18.1159 73.864C18.1159 72.848 19.2599 72.552 21.0279 72.352V72.248C21.0279 71.464 20.5879 71.2 20.0519 71.2C19.4519 71.2 19.0999 71.528 19.0679 72.056H18.3159C18.3879 71.128 19.2039 70.608 20.0439 70.608C21.2279 70.608 21.7719 71.176 21.7559 72.384C21.7559 72.712 21.7559 73.048 21.7479 73.376C21.7399 74.096 21.7799 74.592 21.8599 75H21.1239ZM21.0839 73.2V72.928C19.7639 73.064 18.9239 73.256 18.9239 73.848C18.9239 74.256 19.2359 74.528 19.7559 74.528C20.4359 74.528 21.0839 74.216 21.0839 73.2ZM23.4087 69.2V75H22.6807V69.2H23.4087ZM27.1555 75C27.1315 74.84 27.1075 74.664 27.0995 74.408C26.8355 74.848 26.3875 75.104 25.6275 75.104C24.8195 75.104 24.1475 74.656 24.1475 73.864C24.1475 72.848 25.2915 72.552 27.0595 72.352V72.248C27.0595 71.464 26.6195 71.2 26.0835 71.2C25.4835 71.2 25.1315 71.528 25.0995 72.056H24.3475C24.4195 71.128 25.2355 70.608 26.0755 70.608C27.2595 70.608 27.8035 71.176 27.7875 72.384C27.7875 72.712 27.7875 73.048 27.7795 73.376C27.7715 74.096 27.8115 74.592 27.8915 75H27.1555ZM27.1155 73.2V72.928C25.7955 73.064 24.9555 73.256 24.9555 73.848C24.9555 74.256 25.2675 74.528 25.7875 74.528C26.4675 74.528 27.1155 74.216 27.1155 73.2ZM28.9202 70.696V69.616H29.6482V70.696H30.4642V71.28H29.6482V73.832C29.6482 74.28 29.6802 74.392 30.0962 74.392H30.4642V75H29.9362C29.1122 75 28.9202 74.816 28.9202 73.92V71.28H28.2402V70.696H28.9202ZM32.9067 71.248C32.3147 71.248 31.7307 71.528 31.6107 72.464H34.1467C34.0987 71.76 33.6027 71.248 32.9067 71.248ZM34.8587 73.752C34.6587 74.496 33.9787 75.104 32.9307 75.104C31.5707 75.104 30.8187 74.128 30.8187 72.856C30.8187 71.496 31.7307 70.624 32.9067 70.624C34.2187 70.624 35.0107 71.728 34.9147 73.072H31.5947C31.6827 74.072 32.3307 74.464 32.9307 74.464C33.5707 74.464 33.9227 74.176 34.1067 73.752H34.8587ZM38.8272 71.952H38.0672C37.9552 71.44 37.5552 71.24 37.0512 71.24C36.6272 71.24 36.1472 71.392 36.1472 71.784C36.1472 72.128 36.3872 72.288 36.8032 72.368L37.4112 72.488C38.1952 72.64 38.8832 72.936 38.8832 73.768C38.8832 74.616 38.1152 75.104 37.1312 75.104C36.0032 75.104 35.3632 74.36 35.2832 73.608H36.0512C36.1632 74.16 36.5072 74.488 37.1472 74.488C37.6992 74.488 38.1472 74.248 38.1472 73.848C38.1472 73.416 37.7392 73.232 37.2752 73.136L36.6352 73.008C36.0512 72.888 35.4112 72.616 35.4112 71.816C35.4112 71.056 36.1792 70.616 37.1312 70.616C38.0592 70.616 38.6912 71.136 38.8272 71.952ZM39.6722 76H39.3682L39.7442 75C39.5762 74.92 39.4642 74.752 39.4642 74.544C39.4642 74.248 39.6962 74.032 39.9762 74.032C40.2562 74.032 40.4882 74.248 40.4882 74.544C40.4882 74.696 40.4402 74.808 40.3042 75.024L39.6722 76ZM43.2196 75V69.2H46.9876V69.904H44.0356V71.664H46.8196V72.368H44.0356V75H43.2196ZM49.5681 70.68V71.456C49.4161 71.44 49.2801 71.424 49.1601 71.424C48.4881 71.424 48.1521 71.8 48.1521 72.744V75H47.4241V70.696H48.1361V71.448C48.3521 70.96 48.8241 70.672 49.3521 70.672C49.4241 70.672 49.4881 70.672 49.5681 70.68ZM52.7036 75C52.6796 74.84 52.6556 74.664 52.6476 74.408C52.3836 74.848 51.9356 75.104 51.1756 75.104C50.3676 75.104 49.6956 74.656 49.6956 73.864C49.6956 72.848 50.8396 72.552 52.6076 72.352V72.248C52.6076 71.464 52.1676 71.2 51.6316 71.2C51.0316 71.2 50.6796 71.528 50.6476 72.056H49.8956C49.9676 71.128 50.7836 70.608 51.6236 70.608C52.8076 70.608 53.3516 71.176 53.3356 72.384C53.3356 72.712 53.3356 73.048 53.3276 73.376C53.3196 74.096 53.3596 74.592 53.4396 75H52.7036ZM52.6636 73.2V72.928C51.3436 73.064 50.5036 73.256 50.5036 73.848C50.5036 74.256 50.8156 74.528 51.3356 74.528C52.0156 74.528 52.6636 74.216 52.6636 73.2ZM57.1564 71.376V70.696H57.8844V74.576C57.8844 75.848 57.2124 76.504 55.9884 76.504C55.0124 76.504 54.3564 76.056 54.2204 75.184H54.9964C55.0924 75.568 55.3324 75.864 55.9964 75.864C56.6444 75.864 57.1564 75.576 57.1564 74.672V74.184C56.8924 74.64 56.4764 74.928 55.7884 74.928C54.8364 74.928 53.9644 74.16 53.9644 72.776C53.9644 71.4 54.8364 70.624 55.7884 70.624C56.4764 70.624 56.8924 70.92 57.1564 71.376ZM57.1884 72.776C57.1884 71.688 56.6204 71.248 55.9724 71.248C55.2604 71.248 54.7564 71.8 54.7564 72.776C54.7564 73.76 55.2604 74.312 55.9724 74.312C56.6204 74.312 57.1884 73.872 57.1884 72.776ZM61.0178 70.68V71.456C60.8658 71.44 60.7298 71.424 60.6098 71.424C59.9378 71.424 59.6018 71.8 59.6018 72.744V75H58.8738V70.696H59.5858V71.448C59.8018 70.96 60.2738 70.672 60.8018 70.672C60.8738 70.672 60.9378 70.672 61.0178 70.68ZM64.1533 75C64.1293 74.84 64.1053 74.664 64.0973 74.408C63.8333 74.848 63.3853 75.104 62.6253 75.104C61.8173 75.104 61.1453 74.656 61.1453 73.864C61.1453 72.848 62.2893 72.552 64.0573 72.352V72.248C64.0573 71.464 63.6173 71.2 63.0813 71.2C62.4813 71.2 62.1293 71.528 62.0973 72.056H61.3453C61.4173 71.128 62.2333 70.608 63.0733 70.608C64.2573 70.608 64.8013 71.176 64.7853 72.384C64.7853 72.712 64.7853 73.048 64.7773 73.376C64.7693 74.096 64.8093 74.592 64.8893 75H64.1533ZM64.1133 73.2V72.928C62.7933 73.064 61.9533 73.256 61.9533 73.848C61.9533 74.256 62.2653 74.528 62.7853 74.528C63.4653 74.528 64.1133 74.216 64.1133 73.2ZM66.4381 70.696V71.344C66.6861 70.936 67.1021 70.624 67.8301 70.624C68.8701 70.624 69.2461 71.296 69.2461 72.28V75H68.5181V72.496C68.5181 71.832 68.4061 71.256 67.5741 71.256C66.8701 71.256 66.4381 71.744 66.4381 72.664V75H65.7101V70.696H66.4381ZM71.9591 70.624C72.9991 70.624 73.6631 71.408 73.7591 72.136H73.0231C72.9191 71.624 72.4711 71.264 71.9111 71.264C71.2631 71.264 70.6711 71.768 70.6711 72.848C70.6711 73.944 71.2711 74.464 71.9111 74.464C72.5191 74.464 72.9511 74.056 73.0551 73.6H73.8071C73.6631 74.408 72.8871 75.104 71.8871 75.104C70.6551 75.104 69.8791 74.168 69.8791 72.856C69.8791 71.576 70.6871 70.624 71.9591 70.624ZM76.2993 71.248C75.7073 71.248 75.1233 71.528 75.0033 72.464H77.5393C77.4913 71.76 76.9953 71.248 76.2993 71.248ZM78.2513 73.752C78.0513 74.496 77.3713 75.104 76.3233 75.104C74.9633 75.104 74.2113 74.128 74.2113 72.856C74.2113 71.496 75.1233 70.624 76.2993 70.624C77.6113 70.624 78.4033 71.728 78.3073 73.072H74.9873C75.0753 74.072 75.7233 74.464 76.3233 74.464C76.9633 74.464 77.3153 74.176 77.4993 73.752H78.2513Z" fill="#141414"/>
<mask id="path-2-inside-1_55_2759" fill="white">
<path d="M45.4077 20.5803C45.392 20.8627 45.4363 21.1453 45.5379 21.4093L53.9507 43.282C54.4546 44.592 53.4876 46 52.084 46H27.9081C26.5046 46 25.5376 44.5921 26.0414 43.2821L34.4535 21.4092C34.555 21.1453 34.5994 20.8628 34.5837 20.5804L34.1134 12.1109C34.0497 10.9645 34.9621 10 36.1103 10H43.8818C45.03 10 45.9425 10.9646 45.8787 12.1111L45.4077 20.5803Z"/>
</mask>
<path d="M45.8787 12.1111L43.8818 12L45.8787 12.1111ZM34.1134 12.1109L32.1164 12.2218L34.1134 12.1109ZM34.4535 21.4092L36.3202 22.1271L34.4535 21.4092ZM34.5837 20.5804L36.5806 20.4695L34.5837 20.5804ZM45.5379 21.4093L43.6712 22.1273L45.5379 21.4093ZM45.4077 20.5803L43.4108 20.4692L45.4077 20.5803ZM45.5379 21.4093L43.6712 22.1273L52.084 44L53.9507 43.282L55.8174 42.564L47.4046 20.6914L45.5379 21.4093ZM52.084 46V44H27.9081V46V48H52.084V46ZM26.0414 43.2821L27.9081 44L36.3202 22.1271L34.4535 21.4092L32.5868 20.6913L24.1747 42.5642L26.0414 43.2821ZM34.5837 20.5804L36.5806 20.4695L36.1103 12L34.1134 12.1109L32.1164 12.2218L32.5868 20.6913L34.5837 20.5804ZM36.1103 10V12H43.8818V10V8H36.1103V10ZM45.8787 12.1111L43.8818 12L43.4108 20.4692L45.4077 20.5803L47.4046 20.6914L47.8756 12.2221L45.8787 12.1111ZM43.8818 10V12L45.8787 12.1111L47.8756 12.2221C48.0032 9.92924 46.1782 8 43.8818 8V10ZM34.1134 12.1109L36.1103 12V12V10V8C33.814 8 31.9891 9.92901 32.1164 12.2218L34.1134 12.1109ZM34.4535 21.4092L36.3202 22.1271C36.5232 21.5992 36.612 21.0343 36.5806 20.4695L34.5837 20.5804L32.5868 20.6913L32.5868 20.6913L34.4535 21.4092ZM27.9081 46V44H27.9081L26.0414 43.2821L24.1747 42.5642C23.1671 45.1842 25.101 48 27.9081 48V46ZM53.9507 43.282L52.084 44V46V48C54.8912 48 56.8251 45.1841 55.8174 42.564L53.9507 43.282ZM45.5379 21.4093L47.4046 20.6914V20.6914L45.4077 20.5803L43.4108 20.4692C43.3793 21.0341 43.4681 21.5993 43.6712 22.1273L45.5379 21.4093Z" fill="#141414" mask="url(#path-2-inside-1_55_2759)"/>
<path d="M31.4995 32C32.8328 31 37.0995 29.6 39.4995 32C41.8995 34.4 46.8328 33 48.4995 32" stroke="#141414" stroke-width="2"/>
<path d="M36.4995 19.5H43.9995" stroke="#141414" stroke-width="2"/>
<line x1="19.7071" y1="6.29289" x2="61.7071" y2="48.2929" stroke="#0000C9" stroke-width="2"/>
</svg>
